<svg width="46" height="46" viewBox="0 0 46 46" fill="none" xmlns="http://www.w3.org/2000/svg">
<g filter="url(#filter0_d)">
<circle cx="23" cy="19" r="19" fill="white"/>
</g>
<g filter="url(#filter1_d)">
<path d="M22.656 17.7804C23.406 17.7804 24.0555 17.4956 24.5861 16.9337C25.1168 16.3718 25.3858 15.6843 25.3858 14.8901C25.3858 14.0962 25.1168 13.4086 24.586 12.8466C24.0553 12.2848 23.4059 12 22.656 12C21.9059 12 21.2566 12.2848 20.726 12.8467C20.1954 13.4085 19.9263 14.0961 19.9263 14.8901C19.9263 15.6843 20.1954 16.3719 20.7261 16.9338C21.2568 17.4955 21.9062 17.7804 22.656 17.7804Z" fill="#37ADEB"/>
<path d="M27.4325 21.2274C27.4172 20.9935 27.3863 20.7385 27.3407 20.4691C27.2947 20.1978 27.2355 19.9412 27.1646 19.7068C27.0913 19.4644 26.9917 19.2251 26.8686 18.9958C26.7408 18.7577 26.5907 18.5505 26.4223 18.3799C26.2461 18.2015 26.0305 18.058 25.7811 17.9534C25.5326 17.8493 25.2572 17.7965 24.9626 17.7965C24.8469 17.7965 24.735 17.8468 24.519 17.9958C24.386 18.0876 24.2304 18.1938 24.0568 18.3112C23.9083 18.4114 23.7072 18.5052 23.4588 18.5902C23.2164 18.6732 22.9704 18.7154 22.7275 18.7154C22.4846 18.7154 22.2386 18.6732 21.996 18.5902C21.7478 18.5053 21.5467 18.4115 21.3984 18.3113C21.2264 18.195 21.0708 18.0888 20.9358 17.9957C20.72 17.8467 20.608 17.7964 20.4923 17.7964C20.1976 17.7964 19.9223 17.8493 19.6739 17.9535C19.4247 18.0579 19.209 18.2014 19.0327 18.38C18.8643 18.5507 18.7141 18.7578 18.5865 18.9958C18.4635 19.2251 18.3639 19.4643 18.2905 19.7069C18.2197 19.9413 18.1605 20.1978 18.1145 20.4691C18.0689 20.7381 18.038 20.9933 18.0227 21.2276C18.0076 21.4573 18 21.6956 18 21.9363C18 22.5627 18.1881 23.0698 18.5589 23.4438C18.9252 23.8128 19.4098 24 19.9992 24H25.4563C26.0456 24 26.5301 23.8129 26.8964 23.4438C27.2674 23.07 27.4555 22.5628 27.4555 21.9362C27.4554 21.6944 27.4477 21.4559 27.4325 21.2274Z" fill="#37ADEB"/>
<path d="M28.9378 21.3498L28.9382 21.3507C29.1262 21.6773 29.0435 22.0943 28.7411 22.3232C28.741 22.3232 28.741 22.3233 28.7409 22.3233L28.5123 22.4963C28.5123 22.4976 28.5123 22.4988 28.5123 22.5C28.5123 22.5012 28.5123 22.5024 28.5123 22.5036L28.7405 22.6763L28.7417 22.6771C29.0417 22.9055 29.1266 23.3218 28.9373 23.6495C28.9373 23.6496 28.9373 23.6496 28.9373 23.6496C28.9373 23.6497 28.9372 23.6497 28.9372 23.6497L28.5332 24.3493C28.5332 24.3494 28.5331 24.3495 28.5331 24.3496C28.344 24.678 27.9403 24.8131 27.5922 24.6663C27.5921 24.6662 27.592 24.6662 27.592 24.6662C27.5919 24.6661 27.5918 24.6661 27.5918 24.6661L27.3239 24.5532C27.3231 24.5536 27.3224 24.5541 27.3216 24.5545L27.2855 24.8425C27.2855 24.8427 27.2855 24.8428 27.2855 24.8429L27.2855 24.8432L26.7893 24.781C26.7738 24.906 26.6673 25 26.5413 25H25.7328C25.6068 25 25.5008 24.906 25.4853 24.781L28.9378 21.3498ZM28.9378 21.3498L28.5333 20.6498L28.5332 20.6498C28.3448 20.3238 27.9421 20.1863 27.5927 20.3337L28.9378 21.3498ZM23.7419 24.3507C23.9304 24.6768 24.3333 24.8142 24.6829 24.6666L26.7898 20.219C26.7738 20.094 26.6678 20 26.5418 20H25.7333C25.6073 20 25.5008 20.094 25.4853 20.219L24.9892 20.1568L24.9892 20.1571C24.9892 20.1572 24.9892 20.1574 24.9891 20.1575L24.953 20.4455C24.9523 20.4459 24.9515 20.4464 24.9508 20.4468L24.6829 20.3339C24.6828 20.3339 24.6827 20.3338 24.6826 20.3338C24.6826 20.3338 24.6825 20.3338 24.6825 20.3337C24.3345 20.187 23.9309 20.3219 23.7417 20.6501C23.7416 20.6503 23.7415 20.6505 23.7414 20.6507L23.3374 21.3498C23.3374 21.3498 23.3374 21.3498 23.3374 21.3498C23.148 21.6776 23.2329 22.0939 23.533 22.3224L23.5341 22.3232L23.7628 22.4963C23.7628 22.4976 23.7628 22.4988 23.7628 22.5C23.7628 22.5012 23.7628 22.5024 23.7628 22.5037L23.5343 22.6767C23.5342 22.6767 23.5342 22.6767 23.5342 22.6767C23.5342 22.6768 23.5341 22.6768 23.5341 22.6768C23.2316 22.9057 23.149 23.3227 23.3369 23.6493L23.3373 23.65L23.7418 24.3505L23.7419 24.3507ZM26.1373 23C25.861 23 25.6373 22.7764 25.6373 22.5C25.6373 22.2236 25.861 22 26.1373 22C26.4137 22 26.6373 22.2236 26.6373 22.5C26.6373 22.7764 26.4137 23 26.1373 23Z" fill="#37ADEB" stroke="white"/>
</g>
<defs>
<filter id="filter0_d" x="0" y="0" width="46" height="46" filterUnits="userSpaceOnUse" color-interpolation-filters="sRGB">
<feFlood flood-opacity="0" result="BackgroundImageFix"/>
<feColorMatrix in="SourceAlpha" type="matrix" values="0 0 0 0 0 0 0 0 0 0 0 0 0 0 0 0 0 0 127 0" result="hardAlpha"/>
<feOffset dy="4"/>
<feGaussianBlur stdDeviation="2"/>
<feComposite in2="hardAlpha" operator="out"/>
<feColorMatrix type="matrix" values="0 0 0 0 0 0 0 0 0 0 0 0 0 0 0 0 0 0 0.25 0"/>
<feBlend mode="normal" in2="BackgroundImageFix" result="effect1_dropShadow"/>
<feBlend mode="normal" in="SourceGraphic" in2="effect1_dropShadow" result="shape"/>
</filter>
<filter id="filter1_d" x="14" y="12" width="19.5385" height="22" filterUnits="userSpaceOnUse" color-interpolation-filters="sRGB">
<feFlood flood-opacity="0" result="BackgroundImageFix"/>
<feColorMatrix in="SourceAlpha" type="matrix" values="0 0 0 0 0 0 0 0 0 0 0 0 0 0 0 0 0 0 127 0" result="hardAlpha"/>
<feOffset dy="4"/>
<feGaussianBlur stdDeviation="2"/>
<feComposite in2="hardAlpha" operator="out"/>
<feColorMatrix type="matrix" values="0 0 0 0 0 0 0 0 0 0 0 0 0 0 0 0 0 0 0.25 0"/>
<feBlend mode="normal" in2="BackgroundImageFix" result="effect1_dropShadow"/>
<feBlend mode="normal" in="SourceGraphic" in2="effect1_dropShadow" result="shape"/>
</filter>
</defs>
</svg>
