<svg width="48" height="48" viewBox="0 0 48 48" fill="none" xmlns="http://www.w3.org/2000/svg">
<g filter="url(#filter0_d)">
<circle cx="24" cy="24" r="19" fill="#37ADEB"/>
</g>
<path d="M19.9205 20.5925L19.9205 20.5925C20.2329 20.9232 20.3913 21.3299 20.3913 21.7938C20.3913 22.2577 20.2329 22.6644 19.9206 22.995L19.9205 20.5925ZM19.9205 20.5925C19.6079 20.2616 19.2199 20.0905 18.7742 20.0905C18.3284 20.0905 17.9404 20.2616 17.6279 20.5925C17.3156 20.9232 17.1571 21.3299 17.1571 21.7938C17.1571 22.2577 17.3156 22.6644 17.6279 22.9951L17.6279 22.9951M19.9205 20.5925L17.6279 22.9951M17.6279 22.9951C17.9405 23.326 18.3285 23.4971 18.7742 23.4971C19.2199 23.4971 19.608 23.326 19.9206 22.995L17.6279 22.9951Z" fill="white" stroke="#37ADEB" stroke-width="0.3"/>
<path d="M21.44 24.7671L21.44 24.7672C21.4652 24.9161 21.4825 25.0583 21.4911 25.1899M21.44 24.7671L21.4911 25.1899M21.44 24.7671C21.4143 24.6159 21.3811 24.4718 21.341 24.3391M21.44 24.7671L21.341 24.3391M21.4911 25.1899C21.4995 25.3161 21.5037 25.4476 21.5037 25.5806V25.5806C21.5037 25.949 21.3922 26.2623 21.1598 26.4965L21.4911 25.1899ZM20.5118 23.3018L20.5119 23.3018C20.6627 23.3651 20.7956 23.4529 20.9052 23.564M20.5118 23.3018L20.9052 23.564M20.5118 23.3018C20.3583 23.2374 20.1903 23.2058 20.014 23.2058C19.9011 23.2058 19.8069 23.2591 19.6904 23.3394L19.6903 23.3395M20.5118 23.3018L19.6903 23.3395M20.9052 23.564C21.007 23.6671 21.0959 23.7905 21.1705 23.9294C21.2413 24.0612 21.2987 24.199 21.341 24.3391M20.9052 23.564L21.341 24.3391M19.6903 23.3395C19.6193 23.3885 19.5361 23.4453 19.4431 23.5082L19.5272 23.6324L19.4433 23.5081C19.3782 23.552 19.2835 23.5973 19.1572 23.6404L19.1571 23.6405M19.6903 23.3395L19.1571 23.6405M19.1571 23.6405C19.0417 23.68 18.9258 23.6996 18.8127 23.6996C18.6996 23.6996 18.5838 23.68 18.4681 23.6405L18.4681 23.6404M19.1571 23.6405L18.4681 23.6404M18.4681 23.6404C18.342 23.5973 18.2473 23.552 18.1824 23.5082M18.4681 23.6404L18.1824 23.5082M16.7202 23.5641L16.7202 23.564C16.8299 23.4529 16.9628 23.365 17.1136 23.3018L16.7202 23.5641ZM16.7202 23.5641C16.6185 23.6671 16.5295 23.7905 16.455 23.9294L16.7202 23.5641ZM16.2845 24.3391L16.2845 24.3391C16.3269 24.199 16.3843 24.0612 16.455 23.9294L16.2845 24.3391ZM16.2845 24.3391C16.2444 24.4718 16.2113 24.6158 16.1856 24.7671L16.1856 24.7671M16.2845 24.3391L16.1856 24.7671M16.1856 24.7671C16.1604 24.9159 16.1431 25.0582 16.1345 25.19L16.1856 24.7671ZM18.1824 23.5082L18.0984 23.6325M18.1824 23.5082L18.0984 23.6325M18.0984 23.6325L18.1825 23.5083C18.0903 23.4459 18.0071 23.3891 17.935 23.3394L18.0984 23.6325ZM20.2793 26.8398C20.6302 26.8398 20.9309 26.7272 21.1598 26.4966L16.1345 25.1901C16.1262 25.3169 16.122 25.4482 16.122 25.5807C16.122 25.9489 16.2335 26.2622 16.4658 26.4965L16.4659 26.4965C16.6947 26.7271 16.9955 26.8398 17.3464 26.8398H20.2793ZM17.935 23.3394C17.8186 23.259 17.7243 23.2058 17.6114 23.2058C17.435 23.2058 17.2671 23.2374 17.1136 23.3018L17.935 23.3394Z" fill="white" stroke="#37ADEB" stroke-width="0.3"/>
<path d="M30.5675 20.5925L30.5675 20.5925C30.8798 20.9232 31.0383 21.3299 31.0383 21.7938C31.0383 22.2577 30.8798 22.6644 30.5676 22.995L30.5675 20.5925ZM30.5675 20.5925C30.2549 20.2616 29.8669 20.0905 29.4212 20.0905C28.9754 20.0905 28.5874 20.2616 28.2749 20.5925C27.9626 20.9232 27.8041 21.3299 27.8041 21.7938C27.8041 22.2577 27.9626 22.6644 28.2749 22.9951L28.2749 22.9951M30.5675 20.5925L28.2749 22.9951M28.2749 22.9951C28.5875 23.326 28.9755 23.4971 29.4212 23.4971C29.8669 23.4971 30.255 23.326 30.5676 22.995L28.2749 22.9951Z" fill="white" stroke="#37ADEB" stroke-width="0.3"/>
<path d="M32.0869 24.7671L32.0869 24.7672C32.1121 24.9161 32.1295 25.0583 32.1381 25.1899M32.0869 24.7671L32.1381 25.1899M32.0869 24.7671C32.0613 24.6159 32.0281 24.4718 31.988 24.3391M32.0869 24.7671L31.988 24.3391M32.1381 25.1899C32.1464 25.3161 32.1507 25.4476 32.1507 25.5806V25.5806C32.1507 25.949 32.0392 26.2623 31.8067 26.4965L32.1381 25.1899ZM31.1588 23.3018L31.1589 23.3018C31.3097 23.3651 31.4426 23.4529 31.5522 23.564M31.1588 23.3018L31.5522 23.564M31.1588 23.3018C31.0052 23.2374 30.8373 23.2058 30.661 23.2058C30.5481 23.2058 30.4538 23.2591 30.3374 23.3394L30.3373 23.3395M31.1588 23.3018L30.3373 23.3395M31.5522 23.564C31.654 23.6671 31.7429 23.7905 31.8175 23.9294C31.8882 24.0612 31.9456 24.199 31.988 24.3391M31.5522 23.564L31.988 24.3391M30.3373 23.3395C30.2663 23.3885 30.1831 23.4453 30.0901 23.5082L30.1741 23.6324L30.0902 23.5081C30.0252 23.552 29.9304 23.5973 29.8042 23.6404L29.8041 23.6405M30.3373 23.3395L29.8041 23.6405M29.8041 23.6405C29.6886 23.68 29.5728 23.6996 29.4597 23.6996C29.3466 23.6996 29.2308 23.68 29.1151 23.6405L29.1151 23.6404M29.8041 23.6405L29.1151 23.6404M29.1151 23.6404C28.989 23.5973 28.8943 23.552 28.8293 23.5082M29.1151 23.6404L28.8293 23.5082M27.3672 23.5641L27.3672 23.564C27.4769 23.4529 27.6098 23.365 27.7606 23.3018L27.3672 23.5641ZM27.3672 23.5641C27.2655 23.6671 27.1765 23.7905 27.102 23.9294L27.3672 23.5641ZM26.9315 24.3391L26.9315 24.3391C26.9739 24.199 27.0313 24.0612 27.102 23.9294L26.9315 24.3391ZM26.9315 24.3391C26.8914 24.4718 26.8582 24.6158 26.8326 24.7671L26.8326 24.7671M26.9315 24.3391L26.8326 24.7671M26.8326 24.7671C26.8074 24.9159 26.7901 25.0582 26.7814 25.19L26.8326 24.7671ZM28.8293 23.5082L28.7454 23.6325M28.8293 23.5082L28.7454 23.6325M28.7454 23.6325L28.8294 23.5083C28.7373 23.4459 28.654 23.3891 28.582 23.3394L28.7454 23.6325ZM30.9263 26.8398C31.2772 26.8398 31.5778 26.7272 31.8067 26.4966L26.7814 25.1901C26.7731 25.3169 26.7689 25.4482 26.7689 25.5807C26.7689 25.9489 26.8805 26.2622 27.1128 26.4965L27.1129 26.4965C27.3417 26.7271 27.6425 26.8398 27.9934 26.8398H30.9263ZM28.5819 23.3394C28.4656 23.259 28.3713 23.2058 28.2584 23.2058C28.082 23.2058 27.9141 23.2374 27.7606 23.3018L28.5819 23.3394Z" fill="white" stroke="#37ADEB" stroke-width="0.3"/>
<path d="M25.7732 22.9463C26.2711 22.4191 26.5236 21.772 26.5236 21.0303C26.5236 20.2887 26.2711 19.6415 25.7731 19.1142L25.7731 19.1142C25.2748 18.5868 24.6597 18.3161 23.9517 18.3161C23.2435 18.3161 22.6284 18.5868 22.1303 19.1143C21.6324 19.6414 21.3798 20.2886 21.3798 21.0303C21.3798 21.772 21.6324 22.4192 22.1304 22.9464L22.1304 22.9464C22.6286 23.4738 23.2437 23.7446 23.9517 23.7446C24.6598 23.7446 25.275 23.4739 25.7732 22.9463ZM25.7732 22.9463L25.6641 22.8433L25.7732 22.9463Z" fill="white" stroke="#37ADEB" stroke-width="0.3"/>
<path d="M28.256 25.955L28.256 25.9551C28.2971 26.1982 28.3253 26.4297 28.3393 26.643M28.256 25.955L28.3393 26.643M28.256 25.955C28.2143 25.7088 28.1604 25.4751 28.0954 25.2603M28.256 25.955L26.7824 23.6097M28.3393 26.643C28.3529 26.8492 28.3598 27.0641 28.3599 27.2816V27.2817C28.3599 27.8692 28.1826 28.36 27.8204 28.7249M28.3393 26.643L27.8204 28.7249M27.8204 28.7249C27.4634 29.0847 26.9932 29.2628 26.4362 29.2628M27.8204 28.7249L26.4362 29.2628M26.7824 23.6097L26.7824 23.6097C27.0205 23.7096 27.2287 23.8476 27.4 24.0211C27.5607 24.1839 27.7021 24.3798 27.8214 24.602C27.9352 24.814 28.0275 25.0355 28.0954 25.2603M26.7824 23.6097C26.5419 23.509 26.2776 23.4589 25.9982 23.4589C25.8449 23.4589 25.7115 23.5298 25.5195 23.6622L25.5194 23.6622M26.7824 23.6097L25.5194 23.6622M28.0954 25.2603L27.9518 25.3037L28.0954 25.2603C28.0954 25.2603 28.0954 25.2603 28.0954 25.2603ZM25.5194 23.6622C25.4018 23.7434 25.2642 23.8373 25.1105 23.9413L25.1945 24.0656L25.1107 23.9412C24.9937 24.0201 24.8286 24.0983 24.6154 24.1711L24.6154 24.1712M25.5194 23.6622L24.6154 24.1712M24.6154 24.1712C24.4151 24.2398 24.2132 24.2741 24.0151 24.2741C23.8171 24.2741 23.6152 24.2398 23.4147 24.1711L23.4147 24.1711M24.6154 24.1712L23.4147 24.1711M23.4147 24.1711C23.2018 24.0983 23.0368 24.0203 22.92 23.9414M23.4147 24.1711L22.92 23.9414M20.6302 24.0212L20.6303 24.0212C20.8016 23.8476 21.01 23.7095 21.2479 23.6098L20.6302 24.0212ZM20.6302 24.0212C20.4696 24.184 20.3282 24.3798 20.209 24.602L20.6302 24.0212ZM19.935 25.2604L19.935 25.2604C20.003 25.0354 20.0952 24.814 20.209 24.602L19.935 25.2604ZM19.935 25.2604C19.8701 25.4751 19.8162 25.7088 19.7745 25.955L19.7745 25.955M19.935 25.2604L19.7745 25.955M19.7745 25.955C19.7333 26.1979 19.7052 26.4294 19.6912 26.6433L19.7745 25.955ZM20.2102 28.7249L20.2102 28.7249C19.8481 28.3598 19.6708 27.8691 19.6708 27.2818C19.6708 27.0651 19.6776 26.8504 19.6912 26.6433L20.2102 28.7249ZM20.2102 28.7249C20.5672 29.0846 21.0375 29.2628 21.5945 29.2628M20.2102 28.7249L21.5945 29.2628M22.92 23.9414C22.7677 23.8384 22.63 23.7444 22.5107 23.6621L22.92 23.9414ZM21.5945 29.2628H26.4362M21.5945 29.2628H26.4362M22.5107 23.6621C22.3188 23.5297 22.1854 23.4588 22.032 23.4588C21.7526 23.4588 21.4884 23.509 21.2479 23.6098L22.5107 23.6621Z" fill="white" stroke="#37ADEB" stroke-width="0.3"/>
<path d="M29.5739 26.7332L29.5743 26.7341C29.7552 27.0483 29.6757 27.4497 29.3846 27.67C29.3845 27.67 29.3845 27.6701 29.3844 27.6701L29.2368 27.7819L29.3841 27.8933L29.3852 27.8942C29.674 28.114 29.7557 28.5147 29.5734 28.8302L29.215 29.4508C29.215 29.4509 29.2149 29.451 29.2149 29.4511L29.2146 29.4515L28.7816 29.2015C28.7257 29.2986 28.6064 29.3385 28.5035 29.2951L29.5739 26.7332ZM29.5739 26.7332L29.215 26.1122L29.215 26.1121C29.0337 25.7985 28.6462 25.6661 28.3098 25.808C28.3096 25.808 28.3095 25.8081 28.3094 25.8081L28.1386 25.8801L28.1155 25.696L28.1153 25.6947C28.0694 25.3362 27.7647 25.0638 27.3993 25.0638H26.682C26.3185 25.0638 26.011 25.3346 25.9659 25.696C25.9659 25.696 25.9658 25.6961 25.9658 25.6961C25.9658 25.6963 25.9658 25.6965 25.9658 25.6966L25.9428 25.8801L25.772 25.8081C25.7719 25.8081 25.7718 25.8081 25.7717 25.808C25.7717 25.808 25.7716 25.808 25.7716 25.808C25.4367 25.6667 25.0483 25.7966 24.8662 26.1125C24.8661 26.1126 24.866 26.1128 24.8659 26.113L24.5075 26.7332C24.5075 26.7332 24.5075 26.7332 24.5075 26.7332C24.3252 27.0487 24.4069 27.4494 24.6957 27.6692L24.6967 27.67L24.8446 27.7819L24.6969 27.8937C24.6969 27.8937 24.6969 27.8937 24.6969 27.8937C24.6968 27.8938 24.6968 27.8938 24.6967 27.8938C24.4056 28.1141 24.3262 28.5155 24.507 28.8298L24.5074 28.8304L24.8663 29.4519L24.8664 29.4521C25.0477 29.7659 25.4355 29.8982 25.772 29.7561L25.9428 29.6839L25.9658 29.8672C25.9658 29.8674 25.9658 29.8676 25.9658 29.8677C25.9658 29.8678 25.9659 29.8678 25.9659 29.8678C26.0108 30.228 26.3168 30.5 26.6816 30.5H27.3989C27.7624 30.5 28.0699 30.2292 28.115 29.8678C28.115 29.8678 28.1151 29.8677 28.1151 29.8676C28.1151 29.8675 28.1151 29.8673 28.1151 29.8672L28.1381 29.6837L28.3089 29.7557M29.5739 26.7332L28.3089 29.7557M28.3089 29.7557C28.309 29.7557 28.3091 29.7558 28.3092 29.7558C28.3093 29.7558 28.3093 29.7558 28.3093 29.7558L28.3089 29.7557ZM27.0404 28.1691C26.8264 28.1691 26.6532 27.996 26.6532 27.7819C26.6532 27.5679 26.8264 27.3947 27.0404 27.3947C27.2545 27.3947 27.4277 27.5679 27.4277 27.7819C27.4277 27.996 27.2545 28.1691 27.0404 28.1691Z" fill="white" stroke="#37ADEB"/>
<defs>
<filter id="filter0_d" x="0" y="0" width="48" height="48" filterUnits="userSpaceOnUse" color-interpolation-filters="sRGB">
<feFlood flood-opacity="0" result="BackgroundImageFix"/>
<feColorMatrix in="SourceAlpha" type="matrix" values="0 0 0 0 0 0 0 0 0 0 0 0 0 0 0 0 0 0 127 0" result="hardAlpha"/>
<feOffset/>
<feGaussianBlur stdDeviation="2.5"/>
<feColorMatrix type="matrix" values="0 0 0 0 0 0 0 0 0 0 0 0 0 0 0 0 0 0 0.1 0"/>
<feBlend mode="normal" in2="BackgroundImageFix" result="effect1_dropShadow"/>
<feBlend mode="normal" in="SourceGraphic" in2="effect1_dropShadow" result="shape"/>
</filter>
</defs>
</svg>
